<?xml version="1.0" encoding="UTF-8"?>
<!--Generator: Apple Native CoreSVG 341-->
<!DOCTYPE svg
PUBLIC "-//W3C//DTD SVG 1.1//EN"
       "http://www.w3.org/Graphics/SVG/1.1/DTD/svg11.dtd">
<svg version="1.1" xmlns="http://www.w3.org/2000/svg" xmlns:xlink="http://www.w3.org/1999/xlink" viewBox="0 0 220.898 316.895">
 <g>
  <rect height="316.895" opacity="0" width="220.898" x="0" y="0"/>
  <path d="M220.898 138.574L220.898 234.961C220.898 268.359 202.344 287.012 168.848 287.012L52.0508 287.012C18.5547 287.012 0 268.359 0 234.961L0 138.574C0 105.176 18.5547 86.6211 52.0508 86.6211L79.9805 86.6211L79.9805 103.906L52.0508 103.906C29.8828 103.906 17.3828 116.406 17.3828 138.574L17.3828 234.961C17.3828 257.227 29.8828 269.629 52.0508 269.629L168.848 269.629C191.113 269.629 203.613 257.227 203.613 234.961L203.613 138.574C203.613 116.406 191.113 103.906 168.848 103.906L141.113 103.906L141.113 86.6211L168.848 86.6211C202.344 86.6211 220.898 105.176 220.898 138.574Z" fill="white" fill-opacity="0.85"/>
  <path d="M110.547 21.9727C105.859 21.9727 101.953 25.7812 101.953 30.3711L101.953 161.426L103.223 192.676C103.418 196.582 106.543 199.902 110.547 199.902C114.453 199.902 117.578 196.582 117.773 192.676L119.043 161.426L119.043 30.3711C119.043 25.7812 115.137 21.9727 110.547 21.9727ZM67.6758 147.07C63.1836 147.07 59.8633 150.293 59.8633 154.59C59.8633 156.934 60.8398 158.691 62.5 160.254L104.297 200.977C106.445 203.027 108.301 203.809 110.547 203.809C112.695 203.809 114.551 203.027 116.699 200.977L158.496 160.254C160.156 158.691 161.035 156.934 161.035 154.59C161.035 150.293 157.617 147.07 153.223 147.07C151.172 147.07 148.926 147.949 147.363 149.609L126.074 171.973L110.547 188.379L94.8242 171.973L73.6328 149.609C72.0703 147.949 69.7266 147.07 67.6758 147.07Z" fill="white" fill-opacity="0.85"/>
 </g>
</svg>
