<?xml version="1.0" encoding="UTF-8"?>
<!--Generator: Apple Native CoreSVG 341-->
<!DOCTYPE svg
PUBLIC "-//W3C//DTD SVG 1.1//EN"
       "http://www.w3.org/Graphics/SVG/1.1/DTD/svg11.dtd">
<svg version="1.1" xmlns="http://www.w3.org/2000/svg" xmlns:xlink="http://www.w3.org/1999/xlink" viewBox="0 0 254.395 254.59">
 <g>
  <rect height="254.59" opacity="0" width="254.395" x="0" y="0"/>
  <path d="M127.148 254.395C197.363 254.395 254.395 197.461 254.395 127.246C254.395 57.0312 197.363 0 127.148 0C56.9336 0 0 57.0312 0 127.246C0 197.461 56.9336 254.395 127.148 254.395ZM127.148 236.23C66.8945 236.23 18.1641 187.5 18.1641 127.246C18.1641 66.9922 66.8945 18.2617 127.148 18.2617C187.402 18.2617 236.133 66.9922 236.133 127.246C236.133 187.5 187.402 236.23 127.148 236.23Z" fill="white" fill-opacity="0.85"/>
  <path d="M127.148 64.1602C122.559 64.1602 118.652 67.9688 118.652 72.5586L118.652 147.949L119.336 172.656C119.531 177.344 123.242 180.078 127.148 180.078C131.055 180.078 134.863 177.344 134.961 172.656L135.742 147.949L135.742 72.5586C135.742 67.9688 131.836 64.1602 127.148 64.1602ZM127.148 190.234C129.395 190.234 131.25 189.551 133.398 187.402L175.195 146.777C176.758 145.117 177.734 143.359 177.734 141.113C177.734 136.719 174.316 133.496 169.922 133.496C167.773 133.496 165.527 134.375 163.965 136.133L143.262 157.91L127.148 174.805L127.148 174.805L111.035 157.91L90.2344 136.133C88.7695 134.375 86.4258 133.496 84.2773 133.496C79.7852 133.496 76.5625 136.719 76.5625 141.113C76.5625 143.359 77.4414 145.117 79.1016 146.777L120.996 187.402C123.047 189.551 125 190.234 127.148 190.234Z" fill="white" fill-opacity="0.85"/>
 </g>
</svg>
