<?xml version="1.0" encoding="UTF-8"?>
<!--Generator: Apple Native CoreSVG 341-->
<!DOCTYPE svg
PUBLIC "-//W3C//DTD SVG 1.1//EN"
       "http://www.w3.org/Graphics/SVG/1.1/DTD/svg11.dtd">
<svg version="1.1" xmlns="http://www.w3.org/2000/svg" xmlns:xlink="http://www.w3.org/1999/xlink" viewBox="0 0 254.395 254.59">
 <g>
  <rect height="254.59" opacity="0" width="254.395" x="0" y="0"/>
  <path d="M127.148 254.395C197.363 254.395 254.395 197.461 254.395 127.246C254.395 57.0312 197.363 0 127.148 0C56.9336 0 0 57.0312 0 127.246C0 197.461 56.9336 254.395 127.148 254.395ZM127.148 236.23C66.8945 236.23 18.1641 187.5 18.1641 127.246C18.1641 66.9922 66.8945 18.2617 127.148 18.2617C187.402 18.2617 236.133 66.9922 236.133 127.246C236.133 187.5 187.402 236.23 127.148 236.23Z" fill="white" fill-opacity="0.85"/>
  <path d="M104.785 197.168L156.25 197.168C160.742 197.168 164.258 193.848 164.258 189.453C164.258 185.156 160.742 181.738 156.25 181.738L139.062 181.738L139.062 113.477C139.062 107.812 136.133 103.906 130.664 103.906L106.641 103.906C102.148 103.906 98.6328 107.227 98.6328 111.523C98.6328 115.918 102.148 119.238 106.641 119.238L121.973 119.238L121.973 181.738L104.785 181.738C100.293 181.738 96.875 185.156 96.875 189.453C96.875 193.848 100.293 197.168 104.785 197.168ZM126.27 81.6406C134.57 81.6406 141.016 75 141.016 66.8945C141.016 58.5938 134.57 51.9531 126.27 51.9531C118.066 51.9531 111.523 58.5938 111.523 66.8945C111.523 75 118.066 81.6406 126.27 81.6406Z" fill="white" fill-opacity="0.85"/>
 </g>
</svg>
