<?xml version="1.0" encoding="UTF-8"?>
<!--Generator: Apple Native CoreSVG 341-->
<!DOCTYPE svg
PUBLIC "-//W3C//DTD SVG 1.1//EN"
       "http://www.w3.org/Graphics/SVG/1.1/DTD/svg11.dtd">
<svg version="1.1" xmlns="http://www.w3.org/2000/svg" xmlns:xlink="http://www.w3.org/1999/xlink" viewBox="0 0 189.062 256.348">
 <g>
  <rect height="256.348" opacity="0" width="189.062" x="0" y="0"/>
  <path d="M189.062 10.0586C189.062 4.49219 185.254 0.488281 179.785 0.488281L9.47266 0.488281C3.90625 0.488281 0 4.49219 0 10.0586C0 15.5273 3.90625 19.5312 9.47266 19.5312L179.785 19.5312C185.254 19.5312 189.062 15.5273 189.062 10.0586ZM9.17969 123.34C11.7188 123.34 14.3555 122.363 15.918 120.801L50.5859 86.5234L94.5312 38.8672L138.477 86.5234L173.145 120.801C174.707 122.363 177.344 123.34 179.883 123.34C185.156 123.34 189.062 119.336 189.062 113.965C189.062 111.426 188.184 109.277 186.133 107.129L101.66 22.6562C99.6094 20.5078 97.168 19.4336 94.5312 19.4336C91.8945 19.4336 89.4531 20.5078 87.4023 22.6562L2.92969 107.129C0.878906 109.277 0 111.426 0 113.965C0 119.336 3.90625 123.34 9.17969 123.34ZM102.832 37.5977C102.637 33.1055 99.0234 29.2969 94.5312 29.2969C90.0391 29.2969 86.4258 33.1055 86.2305 37.5977L85.0586 75.1953L85.0586 246.973C85.0586 252.441 88.9648 256.348 94.5312 256.348C100.098 256.348 104.004 252.441 104.004 246.973L104.004 75.1953Z" fill="white" fill-opacity="0.85"/>
 </g>
</svg>
