<?xml version="1.0" encoding="UTF-8"?>
<!--Generator: Apple Native CoreSVG 341-->
<!DOCTYPE svg
PUBLIC "-//W3C//DTD SVG 1.1//EN"
       "http://www.w3.org/Graphics/SVG/1.1/DTD/svg11.dtd">
<svg version="1.1" xmlns="http://www.w3.org/2000/svg" xmlns:xlink="http://www.w3.org/1999/xlink" viewBox="0 0 270.495 301.465">
 <g>
  <rect height="301.465" opacity="0" width="270.495" x="0" y="0"/>
  <path d="M38.6788 162.458C18.4459 184.49 10.8577 204.553 18.7434 218.164C26.6209 231.869 47.7644 235.348 76.9505 228.844C78.2393 234.352 79.7239 239.511 81.4047 244.277C44.3148 251.975 16.3347 245.952 4.97385 226.172C-6.50976 206.436 2.26186 179.199 27.5968 150.939C30.867 154.76 34.5745 158.607 38.6788 162.458ZM135.376 226.043C121.907 232.151 108.987 236.957 96.8833 240.38C95.3167 235.544 93.9087 230.299 92.6934 224.63C99.9272 222.425 107.572 219.647 115.525 216.354C122.274 219.943 128.91 223.197 135.376 226.043ZM181.971 200.953C177.825 203.601 173.495 206.211 169.036 208.789C164.365 211.482 159.733 214.035 155.155 216.429C148.761 213.857 142.113 210.855 135.289 207.494C143.479 203.499 151.917 199.012 160.54 194.043C168.934 189.196 176.841 184.267 184.189 179.302C183.672 186.876 182.942 194.131 181.971 200.953ZM232.018 162.475C222.956 171.27 212.341 180.076 200.25 188.695C201.03 181.671 201.539 174.29 201.825 166.656C208.676 161.396 214.897 156.144 220.463 150.954C224.77 154.846 228.61 158.694 232.018 162.475ZM68.6552 135.445C61.8876 140.637 55.7454 145.819 50.24 150.939C45.9389 147.049 42.1023 143.204 38.6978 139.427C47.6917 130.735 58.2069 122.03 70.168 113.504C69.4093 120.498 68.9159 127.841 68.6552 135.445ZM265.521 75.7812C276.946 95.5158 268.255 122.717 243.099 150.927C239.831 147.103 236.126 143.253 232.025 139.4C252.129 117.43 259.68 97.3988 251.849 83.7891C243.901 70.056 222.722 66.5305 193.569 73.0196C192.277 67.5236 190.79 62.3709 189.107 57.6116C226.124 49.8734 254.08 55.9036 265.521 75.7812ZM135.29 94.4279C127.29 98.3428 119.051 102.747 110.638 107.617C101.977 112.608 93.8317 117.682 86.2694 122.792C86.762 115.252 87.474 108.04 88.4287 101.26C92.8168 98.4577 97.4067 95.6949 102.142 92.9688C106.658 90.358 111.137 87.879 115.562 85.561C121.912 88.1213 128.516 91.1044 135.29 94.4279ZM177.823 77.2374C170.625 79.4352 163.024 82.2043 155.12 85.4875C148.408 81.9335 141.803 78.6971 135.371 75.8679C148.758 69.7663 161.603 64.9594 173.639 61.5312C175.202 66.358 176.609 71.5859 177.823 77.2374Z" fill="black" fill-opacity="0.85"/>
  <path d="M265.521 226.172C254.137 245.935 226.169 251.952 189.089 244.19C190.757 239.463 192.231 234.348 193.512 228.887C222.681 235.351 243.893 231.856 251.849 218.164C262.914 198.989 243.57 167.286 201.836 135.333C201.569 127.693 201.069 120.316 200.299 113.292C256.519 153.398 282.036 197.479 265.521 226.172ZM110.638 194.336C134.939 208.369 157.788 218.527 177.773 224.65C176.558 230.301 175.151 235.532 173.587 240.355C151.841 234.148 127.58 223.658 102.142 208.984C97.4398 206.277 92.8815 203.534 88.487 200.757C87.5245 193.954 86.8032 186.719 86.2942 179.165C93.8688 184.271 101.997 189.345 110.638 194.336ZM81.3564 57.6185C79.6805 62.3634 78.2008 67.5001 76.9152 72.9793C47.7578 66.4885 26.6197 69.945 18.7434 83.5938C7.71364 102.707 26.9568 134.385 68.6638 166.423C68.9399 174.045 69.4412 181.41 70.21 188.422C13.973 148.226-11.4943 104.114 4.97385 75.5859C16.3801 55.8843 44.3017 49.8775 81.3564 57.6185ZM169.036 93.1641L182.021 101.002C182.989 107.818 183.712 115.068 184.214 122.649C176.845 117.686 168.935 112.758 160.54 107.91C135.928 93.6937 112.821 83.4084 92.6526 77.2185C93.8691 71.5423 95.2806 66.2926 96.8505 61.4503C118.79 67.6942 143.306 78.3 169.036 93.1641Z" fill="black" fill-opacity="0.85"/>
  <path d="M135.247 301.465C173.822 301.465 202.142 240.625 202.142 150.684C202.142 61.1328 173.822 0.488281 135.247 0.488281C96.5754 0.488281 68.3528 61.1328 68.3528 150.684C68.3528 240.625 96.5754 301.465 135.247 301.465ZM135.247 285.547C106.634 285.547 85.3449 231.152 85.3449 150.684C85.3449 70.5078 106.634 16.4062 135.247 16.4062C163.763 16.4062 185.15 70.5078 185.15 150.684C185.15 231.152 163.763 285.547 135.247 285.547Z" fill="black" fill-opacity="0.85"/>
  <path d="M135.247 177.832C150.091 177.832 162.103 165.82 162.103 150.879C162.103 136.035 150.091 124.023 135.247 124.023C120.306 124.023 108.294 136.035 108.294 150.879C108.294 165.82 120.306 177.832 135.247 177.832Z" fill="black" fill-opacity="0.85"/>
 </g>
</svg>
