<?xml version="1.0" encoding="UTF-8"?>
<!--Generator: Apple Native CoreSVG 341-->
<!DOCTYPE svg
PUBLIC "-//W3C//DTD SVG 1.1//EN"
       "http://www.w3.org/Graphics/SVG/1.1/DTD/svg11.dtd">
<svg version="1.1" xmlns="http://www.w3.org/2000/svg" xmlns:xlink="http://www.w3.org/1999/xlink" viewBox="0 0 276.855 229.785">
 <g>
  <rect height="229.785" opacity="0" width="276.855" x="0" y="0"/>
  <path d="M0 211.621C0 220.215 5.66406 223.633 11.9141 223.633C15.7227 223.633 18.8477 221.68 22.8516 219.043C36.5234 208.594 54.7852 202.246 74.0234 202.344C93.1641 202.441 112.207 209.766 126.465 223.926C131.055 228.223 134.57 229.59 138.477 229.59C142.383 229.59 145.996 228.223 150.391 223.926C164.844 209.863 183.691 202.441 202.832 202.344C222.07 202.246 240.43 208.594 254.004 219.043C258.008 221.68 261.23 223.633 264.941 223.633C271.191 223.633 276.855 220.215 276.855 211.621L276.855 40.8203C276.855 38.5742 276.66 37.0117 275.391 34.8633C264.062 15.7227 235.938 0 202.441 0C174.512 0 151.074 11.3281 138.477 27.4414C125.781 11.3281 102.344 0 74.4141 0C40.918 0 12.793 15.7227 1.46484 34.8633C0.195312 37.0117 0 38.5742 0 40.8203ZM17.2852 201.953L17.2852 42.9688C27.6367 27.5391 50.4883 17.2852 74.4141 17.2852C99.1211 17.2852 120.215 27.6367 129.785 44.043L129.785 204.297C117.285 193.848 96.6797 185.059 74.4141 185.059C51.1719 185.059 30.3711 191.797 17.2852 201.953ZM147.07 204.297L147.07 44.043C156.641 27.6367 177.832 17.2852 202.441 17.2852C226.367 17.2852 249.219 27.5391 259.57 42.9688L259.57 201.953C246.582 191.797 225.684 185.059 202.441 185.059C180.176 185.059 159.57 193.848 147.07 204.297Z" fill="white" fill-opacity="0.85"/>
 </g>
</svg>
