<?xml version="1.0" encoding="UTF-8"?>
<!--Generator: Apple Native CoreSVG 341-->
<!DOCTYPE svg
PUBLIC "-//W3C//DTD SVG 1.1//EN"
       "http://www.w3.org/Graphics/SVG/1.1/DTD/svg11.dtd">
<svg version="1.1" xmlns="http://www.w3.org/2000/svg" xmlns:xlink="http://www.w3.org/1999/xlink" viewBox="0 0 250.195 229.785">
 <g>
  <rect height="229.785" opacity="0" width="250.195" x="0" y="0"/>
  <path d="M37.9883 229.785L212.109 229.785C237.402 229.785 250.195 217.09 250.195 192.188L250.195 37.8906C250.195 12.9883 237.402 0.292969 212.109 0.292969L37.9883 0.292969C12.793 0.292969 0 12.8906 0 37.8906L0 192.188C0 217.188 12.793 229.785 37.9883 229.785ZM36.6211 212.5C24.1211 212.5 17.2852 205.859 17.2852 192.969L17.2852 76.4648C17.2852 63.4766 24.1211 56.9336 36.6211 56.9336L213.379 56.9336C225.781 56.9336 232.812 63.4766 232.812 76.4648L232.812 192.969C232.812 205.859 225.781 212.5 213.379 212.5ZM100.195 101.855L107.617 101.855C111.816 101.855 112.988 100.684 112.988 96.582L112.988 89.2578C112.988 85.1562 111.816 84.082 107.617 84.082L100.195 84.082C96.0938 84.082 94.9219 85.1562 94.9219 89.2578L94.9219 96.582C94.9219 100.684 96.0938 101.855 100.195 101.855ZM142.676 101.855L150.098 101.855C154.199 101.855 155.371 100.684 155.371 96.582L155.371 89.2578C155.371 85.1562 154.199 84.082 150.098 84.082L142.676 84.082C138.477 84.082 137.305 85.1562 137.305 89.2578L137.305 96.582C137.305 100.684 138.477 101.855 142.676 101.855ZM185.059 101.855L192.48 101.855C196.582 101.855 197.852 100.684 197.852 96.582L197.852 89.2578C197.852 85.1562 196.582 84.082 192.48 84.082L185.059 84.082C180.957 84.082 179.688 85.1562 179.688 89.2578L179.688 96.582C179.688 100.684 180.957 101.855 185.059 101.855ZM57.8125 143.555L65.2344 143.555C69.3359 143.555 70.6055 142.48 70.6055 138.379L70.6055 130.957C70.6055 126.953 69.3359 125.781 65.2344 125.781L57.8125 125.781C53.7109 125.781 52.4414 126.953 52.4414 130.957L52.4414 138.379C52.4414 142.48 53.7109 143.555 57.8125 143.555ZM100.195 143.555L107.617 143.555C111.816 143.555 112.988 142.48 112.988 138.379L112.988 130.957C112.988 126.953 111.816 125.781 107.617 125.781L100.195 125.781C96.0938 125.781 94.9219 126.953 94.9219 130.957L94.9219 138.379C94.9219 142.48 96.0938 143.555 100.195 143.555ZM142.676 143.555L150.098 143.555C154.199 143.555 155.371 142.48 155.371 138.379L155.371 130.957C155.371 126.953 154.199 125.781 150.098 125.781L142.676 125.781C138.477 125.781 137.305 126.953 137.305 130.957L137.305 138.379C137.305 142.48 138.477 143.555 142.676 143.555ZM185.059 143.555L192.48 143.555C196.582 143.555 197.852 142.48 197.852 138.379L197.852 130.957C197.852 126.953 196.582 125.781 192.48 125.781L185.059 125.781C180.957 125.781 179.688 126.953 179.688 130.957L179.688 138.379C179.688 142.48 180.957 143.555 185.059 143.555ZM57.8125 185.352L65.2344 185.352C69.3359 185.352 70.6055 184.277 70.6055 180.176L70.6055 172.754C70.6055 168.652 69.3359 167.578 65.2344 167.578L57.8125 167.578C53.7109 167.578 52.4414 168.652 52.4414 172.754L52.4414 180.176C52.4414 184.277 53.7109 185.352 57.8125 185.352ZM100.195 185.352L107.617 185.352C111.816 185.352 112.988 184.277 112.988 180.176L112.988 172.754C112.988 168.652 111.816 167.578 107.617 167.578L100.195 167.578C96.0938 167.578 94.9219 168.652 94.9219 172.754L94.9219 180.176C94.9219 184.277 96.0938 185.352 100.195 185.352ZM142.676 185.352L150.098 185.352C154.199 185.352 155.371 184.277 155.371 180.176L155.371 172.754C155.371 168.652 154.199 167.578 150.098 167.578L142.676 167.578C138.477 167.578 137.305 168.652 137.305 172.754L137.305 180.176C137.305 184.277 138.477 185.352 142.676 185.352Z" fill="black" fill-opacity="0.85"/>
 </g>
</svg>
