<?xml version="1.0" encoding="UTF-8"?>
<!--Generator: Apple Native CoreSVG 341-->
<!DOCTYPE svg
PUBLIC "-//W3C//DTD SVG 1.1//EN"
       "http://www.w3.org/Graphics/SVG/1.1/DTD/svg11.dtd">
<svg version="1.1" xmlns="http://www.w3.org/2000/svg" xmlns:xlink="http://www.w3.org/1999/xlink" viewBox="0 0 152.344 213.184">
 <g>
  <rect height="213.184" opacity="0" width="152.344" x="0" y="0"/>
  <path d="M0 106.543C0 109.277 1.07422 111.621 3.125 113.672L103.516 210.254C105.371 212.012 107.715 213.086 110.449 213.086C115.918 213.086 120.215 208.887 120.215 203.32C120.215 200.586 119.141 198.242 117.383 196.484L23.8281 106.543L117.383 16.5039C119.141 14.7461 120.215 12.3047 120.215 9.66797C120.215 4.10156 115.918 0 110.449 0C107.715 0 105.371 0.976562 103.516 2.83203L3.125 99.4141C1.07422 101.367 0 103.711 0 106.543Z" fill="white" fill-opacity="0.85"/>
 </g>
</svg>
