<?xml version="1.0" encoding="UTF-8"?>
<!--Generator: Apple Native CoreSVG 341-->
<!DOCTYPE svg
PUBLIC "-//W3C//DTD SVG 1.1//EN"
       "http://www.w3.org/Graphics/SVG/1.1/DTD/svg11.dtd">
<svg version="1.1" xmlns="http://www.w3.org/2000/svg" xmlns:xlink="http://www.w3.org/1999/xlink" viewBox="0 0 152.344 213.184">
 <g>
  <rect height="213.184" opacity="0" width="152.344" x="0" y="0"/>
  <path d="M152.344 106.543C152.344 103.711 151.27 101.367 149.219 99.4141L48.8281 2.83203C46.9727 0.976562 44.6289 0 41.8945 0C36.4258 0 32.1289 4.10156 32.1289 9.66797C32.1289 12.3047 33.2031 14.7461 34.9609 16.5039L128.516 106.543L34.9609 196.484C33.2031 198.242 32.1289 200.586 32.1289 203.32C32.1289 208.887 36.4258 213.086 41.8945 213.086C44.6289 213.086 46.9727 212.012 48.8281 210.254L149.219 113.672C151.27 111.621 152.344 109.277 152.344 106.543Z" fill="black" fill-opacity="0.85"/>
 </g>
</svg>
