<?xml version="1.0" encoding="UTF-8"?>
<!--Generator: Apple Native CoreSVG 341-->
<!DOCTYPE svg
PUBLIC "-//W3C//DTD SVG 1.1//EN"
       "http://www.w3.org/Graphics/SVG/1.1/DTD/svg11.dtd">
<svg version="1.1" xmlns="http://www.w3.org/2000/svg" xmlns:xlink="http://www.w3.org/1999/xlink" viewBox="0 0 209.668 269.238">
 <g>
  <rect height="269.238" opacity="0" width="209.668" x="0" y="0"/>
  <path d="M37.5977 269.238L172.07 269.238C197.07 269.238 209.668 256.348 209.668 231.25L209.668 114.062L119.141 114.062C103.906 114.062 96.6797 106.738 96.6797 91.5039L96.6797 0.0976562L37.5977 0.0976562C12.793 0.0976562 0 12.8906 0 38.0859L0 231.25C0 256.445 12.5977 269.238 37.5977 269.238ZM119.727 98.4375L208.105 98.4375C207.324 93.8477 204.004 89.4531 198.828 84.2773L126.465 10.9375C121.484 5.76172 116.797 2.34375 112.305 1.5625L112.305 91.0156C112.305 95.9961 114.746 98.4375 119.727 98.4375Z" fill="black" fill-opacity="0.85"/>
 </g>
</svg>
