<?xml version="1.0" encoding="UTF-8"?>
<!--Generator: Apple Native CoreSVG 341-->
<!DOCTYPE svg
PUBLIC "-//W3C//DTD SVG 1.1//EN"
       "http://www.w3.org/Graphics/SVG/1.1/DTD/svg11.dtd">
<svg version="1.1" xmlns="http://www.w3.org/2000/svg" xmlns:xlink="http://www.w3.org/1999/xlink" viewBox="0 0 209.668 269.238">
 <g>
  <rect height="269.238" opacity="0" width="209.668" x="0" y="0"/>
  <path d="M37.5977 269.238L172.07 269.238C197.07 269.238 209.668 256.348 209.668 231.25L209.668 114.355C209.668 99.8047 207.91 93.457 198.828 84.2773L126.465 10.9375C117.871 2.05078 110.84 0.0976562 97.8516 0.0976562L37.5977 0.0976562C12.793 0.0976562 0 12.8906 0 38.0859L0 231.25C0 256.445 12.5977 269.238 37.5977 269.238ZM38.4766 251.953C24.5117 251.953 17.2852 244.531 17.2852 230.859L17.2852 38.4766C17.2852 25.0977 24.5117 17.3828 38.5742 17.3828L96.3867 17.3828L96.3867 92.1875C96.3867 107.129 103.906 114.355 118.555 114.355L192.383 114.355L192.383 230.859C192.383 244.531 185.156 251.953 171.094 251.953ZM120.41 98.0469C114.941 98.0469 112.695 95.8984 112.695 90.332L112.695 20.8008L188.965 98.0469Z" fill="black" fill-opacity="0.85"/>
 </g>
</svg>
