<?xml version="1.0" encoding="UTF-8"?>
<!--Generator: Apple Native CoreSVG 341-->
<!DOCTYPE svg
PUBLIC "-//W3C//DTD SVG 1.1//EN"
       "http://www.w3.org/Graphics/SVG/1.1/DTD/svg11.dtd">
<svg version="1.1" xmlns="http://www.w3.org/2000/svg" xmlns:xlink="http://www.w3.org/1999/xlink" viewBox="0 0 340.527 353.223">
 <g>
  <rect height="353.223" opacity="0" width="340.527" x="0" y="0"/>
  <path d="M170.312 218.75C180.762 218.945 191.211 216.309 204.59 210.156L329.297 153.125C336.719 149.707 340.527 143.164 340.527 136.23C340.527 129.395 336.719 122.656 329.297 119.238L204.59 62.207C191.211 56.1523 180.762 53.5156 170.312 53.6133C159.766 53.5156 149.414 56.1523 136.035 62.207L11.3281 119.238C3.80859 122.656 0 129.395 0 136.23C0 143.164 3.80859 149.707 11.3281 153.125L136.035 210.156C149.414 216.309 159.766 218.945 170.312 218.75ZM170.312 201.758C161.719 201.758 153.516 199.707 142.578 194.629L24.3164 140.625C21.9727 139.551 20.8008 137.988 20.8008 136.23C20.8008 134.375 21.9727 132.812 24.3164 131.738L142.578 77.832C153.516 72.7539 161.719 70.7031 170.312 70.7031C178.906 70.7031 187.012 72.7539 197.949 77.832L316.309 131.738C318.555 132.812 319.727 134.375 319.727 136.23C319.727 137.988 318.555 139.551 316.309 140.625L197.949 194.629C187.012 199.707 178.906 201.758 170.312 201.758ZM50.6836 230.664C50.6836 265.234 96.7773 297.559 170.312 297.559C243.75 297.559 289.844 265.234 289.844 230.664L289.844 165.137L272.559 165.137L272.559 230.664C272.559 255.371 233.398 281.152 170.312 281.152C107.227 281.152 68.0664 255.371 68.0664 230.664L68.0664 165.137L50.6836 165.137ZM170.703 149.805C184.375 149.805 196.777 143.75 196.777 136.133C196.777 128.809 184.375 122.754 170.703 122.754C156.934 122.754 144.434 128.809 144.434 136.133C144.434 143.75 156.934 149.805 170.703 149.805ZM92.4805 182.52L169.043 143.164L163.086 131.934L78.2227 175ZM78.2227 303.613L92.4805 303.613L92.4805 182.52L78.2227 175.488ZM68.3594 304.59L68.3594 337.988C68.3594 347.363 74.2188 353.223 83.5938 353.223L87.0117 353.223C96.2891 353.223 102.246 347.363 102.246 337.988L102.246 304.59C102.246 295.312 96.2891 289.453 87.0117 289.453L83.5938 289.453C74.2188 289.453 68.3594 295.312 68.3594 304.59Z" fill="black" fill-opacity="0.85"/>
 </g>
</svg>
