<?xml version="1.0" encoding="UTF-8"?>
<!--Generator: Apple Native CoreSVG 341-->
<!DOCTYPE svg
PUBLIC "-//W3C//DTD SVG 1.1//EN"
       "http://www.w3.org/Graphics/SVG/1.1/DTD/svg11.dtd">
<svg version="1.1" xmlns="http://www.w3.org/2000/svg" xmlns:xlink="http://www.w3.org/1999/xlink" viewBox="0 0 337.012 353.223">
 <g>
  <rect height="353.223" opacity="0" width="337.012" x="0" y="0"/>
  <path d="M325.977 120.801L201.855 63.9648C188.867 58.1055 178.711 55.5664 168.555 55.7617C158.301 55.5664 148.145 58.1055 135.156 63.9648L11.0352 120.801C3.61328 124.121 0 130.176 0 136.23C0 142.285 3.61328 148.047 11.0352 151.465L66.6016 176.758L144.238 139.648C143.164 138.477 142.676 137.305 142.676 136.133C142.676 128.809 155.176 122.754 168.945 122.754C182.617 122.754 195.02 128.809 195.02 136.133C195.02 143.75 182.617 149.805 168.945 149.805C164.453 149.805 160.254 149.219 156.445 148.047L81.6406 183.887L135.156 208.398C148.145 214.355 158.301 216.797 168.555 216.699C178.711 216.797 188.867 214.355 201.855 208.398L325.977 151.465C333.398 148.047 337.012 142.285 337.012 136.23C337.012 130.176 333.398 124.121 325.977 120.801ZM81.25 200.781L81.25 276.758C101.953 289.355 131.738 297.559 168.555 297.559C241.992 297.559 288.086 265.234 288.086 230.664L288.086 185.938L208.398 222.461C193.945 229.102 181.055 232.422 168.555 232.227C155.957 232.422 143.066 229.102 128.613 222.461ZM48.9258 186.035L48.9258 230.664C48.9258 241.309 55.2734 254.492 67.0898 265.723L67.0898 194.336ZM67.0898 303.906L81.25 303.906L81.25 276.758C75.8789 273.438 71.0938 269.727 67.0898 265.723ZM57.2266 304.59L57.2266 337.988C57.2266 347.363 63.0859 353.223 72.3633 353.223L75.7812 353.223C85.1562 353.223 91.0156 347.363 91.0156 337.988L91.0156 304.59C91.0156 295.312 85.1562 289.453 75.7812 289.453L72.3633 289.453C63.0859 289.453 57.2266 295.312 57.2266 304.59Z" fill="black" fill-opacity="0.85"/>
 </g>
</svg>
