<?xml version="1.0" encoding="UTF-8"?>
<!--Generator: Apple Native CoreSVG 341-->
<!DOCTYPE svg
PUBLIC "-//W3C//DTD SVG 1.1//EN"
       "http://www.w3.org/Graphics/SVG/1.1/DTD/svg11.dtd">
<svg version="1.1" xmlns="http://www.w3.org/2000/svg" xmlns:xlink="http://www.w3.org/1999/xlink" viewBox="0 0 315.147 299.872">
 <g>
  <rect height="299.872" opacity="0" width="315.147" x="0" y="0"/>
  <path d="M7.52465 273.813L25.884 292.172C36.7239 303.207 48.9309 302.426 60.3567 289.536L216.021 115.903L205.279 104.965L50.4934 277.621C45.22 283.383 40.4348 284.555 34.2825 278.403L21.2942 265.512C15.1418 259.36 16.3137 254.575 22.1731 249.204L195.025 91.2933L184.087 80.5512L10.0637 239.34C-2.53395 250.961-3.21754 262.875 7.52465 273.813ZM123.247 25.2777C118.267 30.1605 117.876 37.0941 120.708 41.5863C123.443 45.7855 129.009 48.7152 136.138 46.7621C151.372 42.2699 169.439 39.9262 185.552 49.2035L177.935 69.0277C174.029 78.6957 176.079 85.8246 182.134 91.9769L208.306 118.344C213.872 123.911 219.048 124.204 225.396 123.032L237.407 120.883L244.927 128.403L244.536 134.164C244.341 140.219 245.611 145.004 251.372 150.571L260.064 159.164C265.337 164.438 272.564 164.829 277.837 159.457L311.333 125.961C316.607 120.493 316.314 113.657 311.04 108.383L302.154 99.5941C296.587 93.9301 292.193 92.2699 286.04 92.6605L280.083 93.0512L272.857 85.8246L275.396 73.8129C276.958 66.684 274.907 61.1176 268.364 54.5746L240.142 26.4496C207.915-5.484 150.786-1.77306 123.247 25.2777ZM138.775 30.4535C161.333 12.7777 206.646 15.0238 226.665 35.0433L257.427 65.5121C260.357 68.4418 260.943 70.5902 260.161 74.7894L256.548 91.4887L273.443 108.383L284.478 107.797C287.505 107.602 288.677 107.895 291.021 110.141L298.15 117.172L268.95 146.274L262.017 139.243C259.771 136.899 259.282 135.727 259.38 132.602L260.161 121.664L243.267 104.868L226.177 107.797C222.271 108.676 220.318 108.188 217.29 105.161L194.634 82.6019C191.509 79.6723 191.314 77.5238 193.169 72.934L204.888 43.4418C189.068 27.6215 161.529 25.0824 139.751 32.7973C137.896 33.4808 137.31 31.6254 138.775 30.4535Z" fill="black" fill-opacity="0.85"/>
 </g>
</svg>
