<?xml version="1.0" encoding="UTF-8"?>
<!--Generator: Apple Native CoreSVG 341-->
<!DOCTYPE svg
PUBLIC "-//W3C//DTD SVG 1.1//EN"
       "http://www.w3.org/Graphics/SVG/1.1/DTD/svg11.dtd">
<svg version="1.1" xmlns="http://www.w3.org/2000/svg" xmlns:xlink="http://www.w3.org/1999/xlink" viewBox="0 0 304.061 288.709">
 <g>
  <rect height="288.709" opacity="0" width="304.061" x="0" y="0"/>
  <path d="M258.036 144.696C261.845 148.505 266.435 148.798 270.341 144.892L301.396 113.935C305.107 110.224 304.911 105.438 301.005 101.63L293.29 94.1104C289.189 89.9111 286.65 89.3252 281.962 89.7158L271.22 90.7901L262.822 82.4893L266.142 68.6221C267.802 61.5908 265.458 54.7549 258.427 47.7236L233.525 23.1143C207.646-2.27635 151.689-0.909163 128.642 23.9932C124.247 28.876 124.833 33.8565 127.665 37.1768C129.716 39.7158 133.72 41.376 137.236 39.7158C155.986 30.9268 175.615 28.6807 192.021 36.7861L181.279 63.251C178.056 71.4541 179.814 77.3135 185.185 82.8799L208.329 106.024C212.333 109.931 216.337 111.005 222.783 109.735L238.603 106.513L247.001 115.009L246.025 125.556C245.634 130.536 246.025 133.173 250.322 137.274ZM6.66926 267.646L20.8294 281.806C30.6927 291.767 42.9974 290.888 53.056 279.56L198.271 115.302C197.587 114.618 197.001 114.032 196.318 113.349L176.396 93.3291C175.712 92.7432 174.931 91.8643 174.247 91.2783L9.40364 235.81C-2.1198 245.868-2.99871 257.88 6.66926 267.646Z" fill="black" fill-opacity="0.85"/>
 </g>
</svg>
