<?xml version="1.0" encoding="UTF-8"?>
<!--Generator: Apple Native CoreSVG 341-->
<!DOCTYPE svg
PUBLIC "-//W3C//DTD SVG 1.1//EN"
       "http://www.w3.org/Graphics/SVG/1.1/DTD/svg11.dtd">
<svg version="1.1" xmlns="http://www.w3.org/2000/svg" xmlns:xlink="http://www.w3.org/1999/xlink" viewBox="0 0 294.629 262.207">
 <g>
  <rect height="262.207" opacity="0" width="294.629" x="0" y="0"/>
  <path d="M111.133 251.074L183.496 251.074L183.496 169.238C183.496 163.77 179.98 160.254 174.512 160.254L120.215 160.254C114.746 160.254 111.133 163.77 111.133 169.238ZM9.27734 130.176C12.207 130.176 14.6484 128.613 16.7969 126.758L142.578 21.1914C144.043 19.9219 145.703 19.3359 147.266 19.3359C148.926 19.3359 150.586 19.9219 152.051 21.1914L277.832 126.758C279.98 128.613 282.324 130.176 285.352 130.176C291.113 130.176 294.629 125.977 294.629 121.68C294.629 119.043 293.555 116.504 291.113 114.453L161.426 5.66406C156.934 1.85547 152.148 0 147.266 0C142.48 0 137.695 1.85547 133.203 5.66406L3.51562 114.453C1.07422 116.504 0 119.043 0 121.68C0 125.977 3.41797 130.176 9.27734 130.176ZM230.566 69.043L259.277 93.2617L259.277 37.6953C259.277 32.8125 256.055 29.6875 251.172 29.6875L238.77 29.6875C233.887 29.6875 230.566 32.8125 230.566 37.6953ZM62.3047 262.012L232.324 262.012C249.512 262.012 259.277 252.344 259.277 235.449L259.277 96.1914L241.992 84.1797L241.992 231.25C241.992 240.137 237.5 244.727 228.613 244.727L65.918 244.727C57.1289 244.727 52.6367 240.137 52.6367 231.25L52.6367 84.375L35.3516 96.1914L35.3516 235.449C35.3516 252.441 45.1172 262.012 62.3047 262.012Z" fill="white" fill-opacity="0.85"/>
 </g>
</svg>
