<?xml version="1.0" encoding="UTF-8"?>
<!--Generator: Apple Native CoreSVG 341-->
<!DOCTYPE svg
PUBLIC "-//W3C//DTD SVG 1.1//EN"
       "http://www.w3.org/Graphics/SVG/1.1/DTD/svg11.dtd">
<svg version="1.1" xmlns="http://www.w3.org/2000/svg" xmlns:xlink="http://www.w3.org/1999/xlink" viewBox="0 0 244.043 246.387">
 <g>
  <rect height="246.387" opacity="0" width="244.043" x="0" y="0"/>
  <path d="M0 98.8281C0 153.223 44.3359 197.559 98.8281 197.559C120.801 197.559 141.016 190.332 157.422 178.125L221.777 242.578C224.219 245.117 227.637 246.387 231.152 246.387C238.867 246.387 244.043 240.527 244.043 233.203C244.043 229.59 242.773 226.465 240.43 224.023L176.367 159.668C189.648 142.969 197.656 121.777 197.656 98.8281C197.656 44.3359 153.32 0 98.8281 0C44.3359 0 0 44.3359 0 98.8281ZM18.2617 98.8281C18.2617 54.3945 54.3945 18.2617 98.8281 18.2617C143.262 18.2617 179.297 54.3945 179.297 98.8281C179.297 143.164 143.262 179.297 98.8281 179.297C54.3945 179.297 18.2617 143.164 18.2617 98.8281Z" fill="black" fill-opacity="0.85"/>
 </g>
</svg>
