<?xml version="1.0" encoding="UTF-8"?>
<!--Generator: Apple Native CoreSVG 341-->
<!DOCTYPE svg
PUBLIC "-//W3C//DTD SVG 1.1//EN"
       "http://www.w3.org/Graphics/SVG/1.1/DTD/svg11.dtd">
<svg version="1.1" xmlns="http://www.w3.org/2000/svg" xmlns:xlink="http://www.w3.org/1999/xlink" viewBox="0 0 235.156 311.23">
 <g>
  <rect height="311.23" opacity="0" width="235.156" x="0" y="0"/>
  <path d="M235.156 237.891C235.156 269.238 186.23 291.113 117.676 291.113C49.0234 291.113 0 269.238 0 237.891C0 211.673 34.5065 192.054 86.2305 186.472L86.2305 202.148C86.2305 202.659 86.2329 203.167 86.2614 203.636C48.1596 208.287 21.582 221.42 21.582 237.891C21.582 258.691 63.5742 274.121 117.578 274.121C171.387 274.121 213.574 258.496 213.574 237.891C213.574 221.558 186.816 208.323 148.7 203.64C148.728 203.169 148.73 202.661 148.73 202.148L148.73 186.436C200.566 191.967 235.156 211.615 235.156 237.891Z" fill="black" fill-opacity="0.85"/>
  <path d="M161.719 65.7227C161.719 86.8164 147.07 104.492 127.344 108.789L127.344 198.242C127.344 230.078 121.875 247.07 117.578 247.07C113.281 247.07 107.715 229.883 107.715 198.242L107.715 108.789C87.8906 104.395 73.3398 86.8164 73.3398 65.7227C73.3398 41.3086 92.9688 21.3867 117.578 21.3867C142.09 21.3867 161.719 41.3086 161.719 65.7227ZM89.4531 52.6367C89.4531 60.8398 96.582 67.8711 104.59 67.8711C112.891 67.8711 119.727 60.8398 119.727 52.6367C119.727 44.4336 112.891 37.5 104.59 37.5C96.582 37.5 89.4531 44.4336 89.4531 52.6367Z" fill="black" fill-opacity="0.85"/>
 </g>
</svg>
