<?xml version="1.0" encoding="UTF-8"?>
<!--Generator: Apple Native CoreSVG 341-->
<!DOCTYPE svg
PUBLIC "-//W3C//DTD SVG 1.1//EN"
       "http://www.w3.org/Graphics/SVG/1.1/DTD/svg11.dtd">
<svg version="1.1" xmlns="http://www.w3.org/2000/svg" xmlns:xlink="http://www.w3.org/1999/xlink" viewBox="0 0 254.395 254.59">
 <g>
  <rect height="254.59" opacity="0" width="254.395" x="0" y="0"/>
  <path d="M127.148 254.395C197.363 254.395 254.395 197.461 254.395 127.246C254.395 57.0312 197.363 0 127.148 0C56.9336 0 0 57.0312 0 127.246C0 197.461 56.9336 254.395 127.148 254.395ZM127.148 236.23C66.8945 236.23 18.1641 187.5 18.1641 127.246C18.1641 66.9922 66.8945 18.2617 127.148 18.2617C187.402 18.2617 236.133 66.9922 236.133 127.246C236.133 187.5 187.402 236.23 127.148 236.23Z" fill="white" fill-opacity="0.85"/>
  <path d="M68.8477 191.406L185.254 191.406C189.746 191.406 191.895 188.477 191.895 184.18C191.895 170.41 171.191 133.984 127.051 133.984C83.0078 133.984 62.3047 170.41 62.3047 184.18C62.3047 188.477 64.3555 191.406 68.8477 191.406ZM127.051 123.73C144.922 123.828 159.277 108.691 159.277 88.5742C159.277 69.6289 144.922 54.0039 127.051 54.0039C109.18 54.0039 94.8242 69.6289 94.8242 88.5742C94.8242 108.691 109.18 123.633 127.051 123.73Z" fill="white" fill-opacity="0.85"/>
 </g>
</svg>
