<?xml version="1.0" encoding="UTF-8"?>
<!--Generator: Apple Native CoreSVG 341-->
<!DOCTYPE svg
PUBLIC "-//W3C//DTD SVG 1.1//EN"
       "http://www.w3.org/Graphics/SVG/1.1/DTD/svg11.dtd">
<svg version="1.1" xmlns="http://www.w3.org/2000/svg" xmlns:xlink="http://www.w3.org/1999/xlink" viewBox="0 0 254.395 254.59">
 <g>
  <rect height="254.59" opacity="0" width="254.395" x="0" y="0"/>
  <path d="M127.148 254.395C197.363 254.395 254.395 197.461 254.395 127.246C254.395 57.0312 197.363 0 127.148 0C56.9336 0 0 57.0312 0 127.246C0 197.461 56.9336 254.395 127.148 254.395ZM127.148 236.23C66.8945 236.23 18.1641 187.5 18.1641 127.246C18.1641 66.9922 66.8945 18.2617 127.148 18.2617C187.402 18.2617 236.133 66.9922 236.133 127.246C236.133 187.5 187.402 236.23 127.148 236.23Z" fill="white" fill-opacity="0.85"/>
  <path d="M136.035 175.586L136.035 78.6133C136.035 73.1445 132.324 69.3359 126.953 69.3359C121.777 69.3359 118.066 73.1445 118.066 78.6133L118.066 175.586C118.066 180.957 121.777 184.766 126.953 184.766C132.324 184.766 136.035 181.055 136.035 175.586ZM78.6133 136.035L175.586 136.035C180.957 136.035 184.766 132.422 184.766 127.246C184.766 121.777 181.055 118.066 175.586 118.066L78.6133 118.066C73.1445 118.066 69.4336 121.777 69.4336 127.246C69.4336 132.422 73.1445 136.035 78.6133 136.035Z" fill="white" fill-opacity="0.85"/>
 </g>
</svg>
