<?xml version="1.0" encoding="UTF-8"?>
<!--Generator: Apple Native CoreSVG 341-->
<!DOCTYPE svg
PUBLIC "-//W3C//DTD SVG 1.1//EN"
       "http://www.w3.org/Graphics/SVG/1.1/DTD/svg11.dtd">
<svg version="1.1" xmlns="http://www.w3.org/2000/svg" xmlns:xlink="http://www.w3.org/1999/xlink" viewBox="0 0 295.898 229.59">
 <g>
  <rect height="229.59" opacity="0" width="295.898" x="0" y="0"/>
  <path d="M233.594 60.4492C241.992 60.2539 249.023 53.2227 249.023 44.9219C249.023 36.3281 241.992 29.1992 233.594 29.1992C225.195 29.1992 217.969 36.3281 217.969 44.9219C217.969 53.2227 225.195 60.5469 233.594 60.4492ZM233.594 130.273C241.992 130.078 249.023 123.047 249.023 114.648C249.023 106.152 241.992 98.9258 233.594 98.9258C225.195 98.9258 217.969 106.152 217.969 114.648C217.969 123.047 225.195 130.371 233.594 130.273ZM233.594 200C241.992 199.902 249.023 192.871 249.023 184.473C249.023 175.977 241.992 168.75 233.594 168.75C225.195 168.75 217.969 175.977 217.969 184.473C217.969 192.871 225.195 200.195 233.594 200ZM286.621 87.8906L286.621 71.582L9.86328 71.582L9.86328 87.8906ZM286.621 158.301L286.621 141.992L9.86328 141.992L9.86328 158.301ZM37.9883 229.59L257.812 229.59C283.105 229.59 295.898 216.797 295.898 191.992L295.898 37.6953C295.898 12.793 283.105 0 257.812 0L37.9883 0C12.793 0 0 12.6953 0 37.6953L0 191.992C0 216.992 12.793 229.59 37.9883 229.59ZM38.3789 212.305C24.707 212.305 17.2852 205.078 17.2852 191.016L17.2852 38.5742C17.2852 24.6094 24.707 17.2852 38.3789 17.2852L257.52 17.2852C270.898 17.2852 278.516 24.6094 278.516 38.5742L278.516 191.016C278.516 205.078 270.898 212.305 257.52 212.305Z" fill="white" fill-opacity="0.85"/>
 </g>
</svg>
