<?xml version="1.0" encoding="UTF-8"?>
<!--Generator: Apple Native CoreSVG 341-->
<!DOCTYPE svg
PUBLIC "-//W3C//DTD SVG 1.1//EN"
       "http://www.w3.org/Graphics/SVG/1.1/DTD/svg11.dtd">
<svg version="1.1" xmlns="http://www.w3.org/2000/svg" xmlns:xlink="http://www.w3.org/1999/xlink" viewBox="0 0 385.938 281.348">
 <g>
  <rect height="281.348" opacity="0" width="385.938" x="0" y="0"/>
  <path d="M221.68 48.2422L221.68 64.2578L212.988 64.2578C210.023 64.2578 207.176 64.4212 204.492 64.7937L204.492 49.0234C204.492 27.4414 192.48 16.2109 171.777 16.2109L49.9023 16.2109C29.1992 16.2109 17.2852 27.4414 17.2852 49.0234L17.2852 124.512C17.2852 146.191 29.1992 157.324 49.9023 157.324L62.9883 157.324C67.5781 157.324 71.2891 160.059 71.2891 166.016L71.2891 197.461L110.449 162.5C114.941 158.594 117.676 157.324 123.633 157.324L164.258 157.324L164.258 173.437L122.949 173.438L81.6406 208.691C75.3906 214.16 71.7773 216.992 66.6016 216.992C59.2773 216.992 55.0781 211.816 55.0781 203.711L55.0781 173.438L48.6328 173.438C19.043 173.438 0 155.957 0 125.293L0 48.2422C0 17.6758 19.043 0 48.6328 0L173.047 0C202.637 0 221.68 17.6758 221.68 48.2422Z" fill="black" fill-opacity="0.85"/>
  <path d="M122.266 40.2344L154.102 125.195C156.152 131.055 153.125 136.719 146.68 136.719C142.578 136.719 140.039 134.473 138.477 129.98L130.078 106.348L91.8945 106.348L83.4961 129.98C81.9336 134.473 79.3945 136.719 75.293 136.719C68.9453 136.719 65.7227 131.152 67.8711 125.195L99.6094 40.2344C101.562 34.9609 105.469 32.1289 110.938 32.1289C116.406 32.1289 120.312 34.9609 122.266 40.2344ZM96.3867 92.6758L125.391 92.6758L110.841 51.7066Z" fill="black" fill-opacity="0.85"/>
  <path d="M385.938 112.5L385.938 189.551C385.938 220.117 366.895 237.695 337.305 237.695L330.859 237.695L330.859 267.871C330.859 275.977 326.66 281.25 319.336 281.25C314.16 281.25 310.547 278.32 304.297 272.949L263.086 237.695L212.988 237.695C182.227 237.695 164.258 220.215 164.258 189.648L164.258 112.5C164.258 81.8359 182.227 64.2578 212.988 64.2578L337.305 64.2578C366.895 64.2578 385.938 81.8359 385.938 112.5ZM236.328 122.852C231.934 122.852 228.613 125.977 228.613 130.078C228.613 134.375 231.934 137.5 236.328 137.5L246.484 137.5C249.805 150 256.152 161.719 265.43 171.68C256.543 177.832 246.582 181.934 234.766 184.766C230.469 185.742 228.027 189.844 228.906 194.043C230.078 198.633 234.668 200.488 239.648 199.219C252.93 196.191 265.332 190.527 276.66 182.031C287.598 190.43 300 196.094 312.5 199.121C318.066 200.391 322.754 198.828 323.926 194.043C325.098 189.551 322.949 185.742 318.262 184.766C306.543 182.031 296.777 177.93 287.695 171.68C296.875 161.914 303.223 150.293 306.543 137.5L316.699 137.5C321.094 137.5 324.414 134.375 324.414 130.078C324.414 125.977 321.094 122.852 316.699 122.852ZM276.66 162.5C269.824 155.176 264.746 146.68 261.719 137.5L291.309 137.5C288.379 146.582 283.398 155.078 276.66 162.5ZM264.844 90.5273C261.035 92.3828 259.473 96.7773 261.426 100.781L267.969 114.551C269.727 118.457 274.219 120.02 278.027 118.262C282.129 116.211 283.691 111.816 281.738 108.008L275.098 94.3359C273.145 90.2344 268.848 88.4766 264.844 90.5273Z" fill="black" fill-opacity="0.85"/>
 </g>
</svg>
